<svg width="313" height="71" viewBox="0 0 313 71" fill="none" xmlns="http://www.w3.org/2000/svg">
<path d="M3 1.75H2.25V3.25H3V2.5V1.75ZM195 2.5L195.375 1.85048L195.201 1.75H195V2.5ZM3 2.5V3.25H7V2.5V1.75H3V2.5ZM15 2.5V3.25H23V2.5V1.75H15V2.5ZM31 2.5V3.25H39V2.5V1.75H31V2.5ZM47 2.5V3.25H55V2.5V1.75H47V2.5ZM63 2.5V3.25H71V2.5V1.75H63V2.5ZM79 2.5V3.25H87V2.5V1.75H79V2.5ZM95 2.5V3.25H103V2.5V1.75H95V2.5ZM111 2.5V3.25H119V2.5V1.75H111V2.5ZM127 2.5V3.25H135V2.5V1.75H127V2.5ZM143 2.5V3.25H151V2.5V1.75H143V2.5ZM159 2.5V3.25H167V2.5V1.75H159V2.5ZM175 2.5V3.25H183V2.5V1.75H175V2.5ZM191 2.5V3.25H195V2.5V1.75H191V2.5ZM195 2.5L194.625 3.14952L198.281 5.26046L198.656 4.61094L199.031 3.96142L195.375 1.85048L195 2.5ZM205.969 8.83281L205.594 9.48233L212.906 13.7042L213.281 13.0547L213.656 12.4052L206.344 8.18329L205.969 8.83281ZM220.594 17.2766L220.219 17.9261L227.531 22.148L227.906 21.4984L228.281 20.8489L220.969 16.627L220.594 17.2766ZM235.219 25.7203L234.844 26.3698L242.156 30.5917L242.531 29.9422L242.906 29.2927L235.594 25.0708L235.219 25.7203ZM249.844 34.1641L249.469 34.8136L256.781 39.0354L257.156 38.3859L257.531 37.7364L250.219 33.5145L249.844 34.1641ZM264.469 42.6078L264.094 43.2573L271.406 47.4792L271.781 46.8297L272.156 46.1802L264.844 41.9583L264.469 42.6078ZM279.094 51.0516L278.719 51.7011L286.031 55.9229L286.406 55.2734L286.781 54.6239L279.469 50.402L279.094 51.0516ZM293.719 59.4953L293.344 60.1448L300.656 64.3667L301.031 63.7172L301.406 63.0677L294.094 58.8458L293.719 59.4953ZM308.344 67.939L307.969 68.5886L311.625 70.6995L312 70.05L312.375 69.4005L308.719 67.2895L308.344 67.939Z" fill="#CBCBCB"/>
<circle cx="3" cy="3" r="3" fill="#6289FF"/>
</svg>
