<svg width="28" height="27" viewBox="0 0 28 27" fill="none" xmlns="http://www.w3.org/2000/svg">
<path d="M19.8917 22.6085C18.7484 23.6675 17.5 23.5003 16.2984 22.9986C15.0267 22.4858 13.86 22.4635 12.5184 22.9986C10.8384 23.6898 9.9517 23.4892 8.94836 22.6085C3.25503 17.0009 4.09503 8.46145 10.5584 8.1493C12.1334 8.22734 13.23 8.97427 14.1517 9.04116C15.5284 8.7736 16.8467 8.00438 18.3167 8.10471C20.0784 8.23849 21.4084 8.90738 22.2834 10.1114C18.6434 12.1961 19.5067 16.778 22.8434 18.06C22.1784 19.7322 21.315 21.3933 19.88 22.6196L19.8917 22.6085ZM14.035 8.08242C13.86 5.59638 15.9717 3.54512 18.3984 3.34445C18.7367 6.22067 15.6684 8.36112 14.035 8.08242Z" fill="#848484"/>
</svg>
