<svg width="21" height="21" viewBox="0 0 21 21" fill="none" xmlns="http://www.w3.org/2000/svg">
<g style="mix-blend-mode:exclusion">
<path fill-rule="evenodd" clip-rule="evenodd" d="M10.3369 2.36923C9.26636 2.36923 8.39848 3.23711 8.39848 4.30769V4.53158C8.87841 4.52306 9.40504 4.52307 9.98297 4.52307H10.6909C11.2688 4.52307 11.7955 4.52306 12.2754 4.53158V4.30769C12.2754 3.23711 11.4075 2.36923 10.3369 2.36923ZM13.5677 4.59021V4.30769C13.5677 2.52338 12.1212 1.07692 10.3369 1.07692C8.55264 1.07692 7.10617 2.52338 7.10617 4.30769V4.59021C6.9832 4.6008 6.86438 4.61305 6.74955 4.62724C5.87943 4.73475 5.16209 4.96059 4.55273 5.46631C3.94337 5.97204 3.5892 6.63547 3.32318 7.47088C3.06537 8.28049 2.87023 9.32133 2.62491 10.6297L2.6071 10.7248C2.26093 12.5709 1.98813 14.0258 1.93807 15.1727C1.88675 16.3484 2.06166 17.3221 2.72485 18.1212C3.38804 18.9203 4.31283 19.2716 5.4778 19.4379C6.61435 19.6 8.09457 19.6 9.97284 19.6H10.701C12.5793 19.6 14.0595 19.6 15.1961 19.4379C16.3611 19.2716 17.2858 18.9203 17.949 18.1212C18.6122 17.3221 18.7871 16.3484 18.7358 15.1727C18.6857 14.0258 18.4129 12.5709 18.0668 10.7248L18.049 10.6298C17.8037 9.32134 17.6085 8.28049 17.3507 7.47088C17.0847 6.63547 16.7305 5.97204 16.1211 5.46631C15.5118 4.96059 14.7945 4.73475 13.9243 4.62724C13.8095 4.61305 13.6907 4.6008 13.5677 4.59021ZM6.90802 5.90979C6.17094 6.00086 5.72577 6.17217 5.37804 6.46076C5.03032 6.74934 4.77991 7.15531 4.55456 7.86299C4.32379 8.58771 4.14222 9.54984 3.88711 10.9104C3.52895 12.8206 3.27472 14.185 3.22915 15.2291C3.18435 16.2554 3.34896 16.8497 3.71929 17.2959C4.08962 17.7421 4.64337 18.0134 5.66034 18.1585C6.69497 18.3061 8.08281 18.3077 10.0263 18.3077H10.6476C12.5911 18.3077 13.9789 18.3061 15.0135 18.1585C16.0305 18.0134 16.5843 17.7421 16.9546 17.2959C17.3249 16.8496 17.4895 16.2554 17.4447 15.2291C17.3992 14.185 17.1449 12.8206 16.7868 10.9104C16.5317 9.54984 16.3501 8.58771 16.1193 7.86299C15.894 7.15532 15.6436 6.74934 15.2958 6.46076C14.9481 6.17217 14.5029 6.00086 13.7659 5.90979C13.011 5.81653 12.0319 5.81538 10.6476 5.81538H10.0263C8.64196 5.81538 7.66285 5.81653 6.90802 5.90979Z" fill="white"/>
</g>
</svg>
