<svg width="64" height="64" viewBox="0 0 64 64" fill="none" xmlns="http://www.w3.org/2000/svg">
<path d="M31.8418 3.33301C25.6861 3.33297 20.862 3.33295 17.098 3.839C13.2454 4.35697 10.2053 5.43788 7.81916 7.82404C5.433 10.2102 4.35209 13.2503 3.83412 17.1029C3.32806 20.8669 3.32809 25.691 3.32813 31.8467V32.1527C3.32809 38.3084 3.32806 43.1325 3.83412 46.8965C4.35209 50.7491 5.433 53.7892 7.81916 56.1753C10.2053 58.5615 13.2454 59.6424 17.098 60.1603C20.862 60.6664 25.6861 60.6664 31.8418 60.6663H32.1478C38.3035 60.6664 43.1276 60.6664 46.8916 60.1603C50.7442 59.6424 53.7843 58.5615 56.1704 56.1753C58.5566 53.7892 59.6375 50.7491 60.1555 46.8965C60.6615 43.1325 60.6615 38.3084 60.6615 32.1527V27.9997C60.6615 26.8951 59.766 25.9997 58.6615 25.9997C57.5569 25.9997 56.6615 26.8951 56.6615 27.9997V31.9997C56.6615 38.3416 56.6572 42.8969 56.1911 46.3635C55.7328 49.7725 54.8611 51.8278 53.342 53.3469C51.8229 54.866 49.7677 55.7377 46.3586 56.196C42.892 56.6621 38.3367 56.6663 31.9948 56.6663C25.6529 56.6663 21.0976 56.6621 17.631 56.196C14.2219 55.7377 12.1667 54.866 10.6476 53.3469C9.1285 51.8278 8.25678 49.7725 7.79845 46.3635C7.33237 42.8969 7.32813 38.3416 7.32813 31.9997C7.32813 25.6577 7.33237 21.1025 7.79845 17.6359C8.25678 14.2268 9.1285 12.1715 10.6476 10.6525C12.1667 9.13338 14.2219 8.26167 17.631 7.80333C21.0976 7.33726 25.6529 7.33301 31.9948 7.33301H35.9948C37.0994 7.33301 37.9948 6.43758 37.9948 5.33301C37.9948 4.22844 37.0994 3.33301 35.9948 3.33301H31.8418Z" fill="white"/>
<path fill-rule="evenodd" clip-rule="evenodd" d="M50.6615 3.33301C45.1386 3.33301 40.6615 7.81016 40.6615 13.333C40.6615 18.8559 45.1386 23.333 50.6615 23.333C56.1843 23.333 60.6615 18.8559 60.6615 13.333C60.6615 7.81016 56.1843 3.33301 50.6615 3.33301ZM44.6615 13.333C44.6615 10.0193 47.3477 7.33301 50.6615 7.33301C53.9752 7.33301 56.6615 10.0193 56.6615 13.333C56.6615 16.6467 53.9752 19.333 50.6615 19.333C47.3477 19.333 44.6615 16.6467 44.6615 13.333Z" fill="white"/>
</svg>
