<svg width="96" height="96" viewBox="0 0 96 96" fill="none" xmlns="http://www.w3.org/2000/svg">
<path d="M78.999 27.3144L65.9451 37.9358L60.7337 31.8327C60.2756 31.2964 59.4712 31.2331 58.9349 31.6912C58.3998 32.1488 58.3365 32.9537 58.794 33.4888L64.8144 40.5401C65.2639 41.0666 66.0517 41.1379 66.5891 40.7009L80.6089 29.294C81.1554 28.849 81.2381 28.0464 80.7932 27.4998C80.3493 26.9533 79.5455 26.8706 78.999 27.3156V27.3144Z" fill="white"/>
<path d="M69.7842 10.8688C57.5307 10.8654 47.4011 20.4199 46.6897 32.6529H11.4838C7.18114 32.6592 3.54885 35.8539 2.99433 40.1212C2.92587 40.3157 2.90705 40.5234 2.93671 40.727C2.92759 40.889 2.92188 41.0522 2.92188 41.2159V75.3631C2.9196 77.3603 3.61959 79.2943 4.89805 80.8289C4.99732 81.0189 5.14279 81.1809 5.32192 81.3001C6.93241 82.9779 9.15845 83.9266 11.4838 83.9261H62.4968C64.8204 83.9266 67.0436 82.9802 68.6529 81.3058C68.7214 81.2602 68.7847 81.2088 68.844 81.1518C68.9387 81.0582 69.0192 80.9498 69.0802 80.8317C70.361 79.2971 71.0615 77.3615 71.0592 75.3631V57.1097C83.2266 56.4451 92.9221 46.3372 92.9221 34.0067C92.9078 21.2335 82.5569 10.8831 69.7842 10.8688ZM11.4838 35.2036H46.6783C46.9527 40.6951 49.1827 45.9059 52.9645 49.8959C53.5293 50.4938 54.1243 51.062 54.7484 51.5971L40.4172 63.7525C38.449 65.4303 35.5532 65.432 33.585 63.7553L5.5872 40.0481C6.14799 37.2345 8.61535 35.2081 11.4838 35.2036ZM11.4838 81.3754C10.1825 81.376 8.91657 80.9533 7.87657 80.17L23.2621 64.4336C23.5878 64.109 23.7139 63.6344 23.5924 63.1906C23.4697 62.7479 23.1189 62.4044 22.6733 62.2926C22.2272 62.1808 21.7554 62.3171 21.4388 62.6497L6.20276 78.2332C5.72241 77.3529 5.47082 76.366 5.47196 75.3631V43.2925L31.9369 65.7018C34.8561 68.1875 39.149 68.1857 42.0665 65.6973L56.821 53.1842C60.2833 55.5392 64.3269 56.8975 68.5086 57.1103V75.3631C68.5103 76.3694 68.257 77.3603 67.7727 78.2429L52.4448 62.648C51.9496 62.1545 51.1498 62.1523 50.6517 62.6423C50.1531 63.1318 50.1417 63.9316 50.6261 64.4354L66.096 80.1757C65.0583 80.9555 63.7946 81.3766 62.4968 81.3754H11.4838ZM69.7842 54.5939C65.4011 54.6116 61.1288 53.2156 57.6026 50.6119C57.5489 50.5645 57.4919 50.5217 57.4326 50.4829C56.497 49.7778 55.6224 48.9951 54.8186 48.1439C48.1114 41.0442 47.3161 30.2101 52.9137 22.2061C58.5114 14.2039 68.9621 11.2345 77.9313 15.0996C86.9006 18.9652 91.9191 28.6007 89.9464 38.1655C87.9731 47.7303 79.5509 54.5933 69.7842 54.5939Z" fill="white"/>
</svg>
