<svg width="80" height="80" viewBox="0 0 80 80" fill="none" xmlns="http://www.w3.org/2000/svg">
<circle cx="40" cy="40" r="40" fill="#D9D9D9" fill-opacity="0.1"/>
<circle cx="39.9967" cy="40.0001" r="34.0698" fill="url(#paint0_linear_1654_186677)" fill-opacity="0.1" stroke="url(#paint1_linear_1654_186677)" stroke-width="0.697674"/>
<mask id="mask0_1654_186677" style="mask-type:alpha" maskUnits="userSpaceOnUse" x="5" y="4" width="70" height="70">
<circle cx="39.9967" cy="39.0695" r="34.0698" fill="url(#paint2_linear_1654_186677)" stroke="url(#paint3_linear_1654_186677)" stroke-width="0.697674"/>
</mask>
<g mask="url(#mask0_1654_186677)">
<g opacity="0.5" filter="url(#filter0_f_1654_186677)">
<circle cx="37.6713" cy="82.3256" r="19.0698" fill="#D9D9D9"/>
</g>
</g>
<path d="M43.2656 29.9062H36.7344C36.4078 29.9062 36.1406 30.1734 36.1406 30.5V32.875H31.0938C30.7672 32.875 30.5 33.1422 30.5 33.4688V47.125C30.5 47.4516 30.7672 47.7188 31.0938 47.7188H48.9062C49.2328 47.7188 49.5 47.4516 49.5 47.125V33.4688C49.5 33.1422 49.2328 32.875 48.9062 32.875H43.8594V30.5C43.8594 30.1734 43.5922 29.9062 43.2656 29.9062ZM37.3281 31.0938H42.6719V32.875H37.3281V31.0938ZM31.6875 46.5312V38.4503L38.2188 40.6234V41.1875C38.2188 42.1672 39.0203 42.9688 40 42.9688C40.9797 42.9688 41.7812 42.1672 41.7812 41.1875V40.6234L48.3125 38.4503V46.5312H31.6875ZM39.4062 41.1875V39.4062H40.5938V41.1875C40.5938 41.5141 40.3266 41.7812 40 41.7812C39.6734 41.7812 39.4062 41.5141 39.4062 41.1875ZM48.3125 37.1975L41.7812 39.3706V38.8125C41.7812 38.4859 41.5141 38.2188 41.1875 38.2188H38.8125C38.4859 38.2188 38.2188 38.4859 38.2188 38.8125V39.3706L31.6875 37.1975V34.0625H48.3125V37.1975Z" fill="#CBCBCB"/>
<path d="M31.9351 25.4531C34.3813 24.0934 37.1719 23.375 39.9982 23.375C42.8244 23.375 45.6151 24.0934 48.0613 25.4531C48.1504 25.5066 48.2513 25.5303 48.3522 25.5303C48.5601 25.5303 48.7619 25.4175 48.8747 25.2275C49.0351 24.9425 48.9282 24.5803 48.6432 24.42C46.0188 22.9594 43.0322 22.1875 39.9982 22.1875C36.9641 22.1875 33.9776 22.9594 31.3532 24.42C31.0682 24.5803 30.9613 24.9425 31.1216 25.2275C31.2819 25.5125 31.6441 25.6194 31.9291 25.4591L31.9351 25.4531Z" fill="#CBCBCB"/>
<path d="M48.0632 54.5469C45.6169 55.9066 42.8263 56.625 40.0001 56.625C37.1738 56.625 34.3832 55.9066 31.9369 54.5469C31.6519 54.3866 31.2897 54.4935 31.1294 54.7785C30.9691 55.0635 31.076 55.4257 31.361 55.586C33.9854 57.0466 36.9719 57.8185 40.006 57.8185C43.0401 57.8185 46.0266 57.0466 48.651 55.586C48.936 55.4257 49.0429 55.0635 48.8826 54.7785C48.7222 54.4935 48.3601 54.3866 48.0751 54.5469H48.0632Z" fill="#CBCBCB"/>
<path d="M25.4513 48.0632C24.0916 45.6169 23.3731 42.8263 23.3731 40.0001C23.3731 37.1738 24.0916 34.3832 25.4513 31.9369C25.6116 31.6519 25.5047 31.2897 25.2197 31.1294C24.9347 30.9691 24.5725 31.076 24.4122 31.361C22.9516 33.9854 22.1797 36.9719 22.1797 40.006C22.1797 43.0401 22.9516 46.0266 24.4122 48.651C24.5191 48.8469 24.7209 48.9538 24.9347 48.9538C25.0297 48.9538 25.1306 48.9301 25.2256 48.8766C25.5106 48.7163 25.6175 48.3541 25.4572 48.0691L25.4513 48.0632Z" fill="#CBCBCB"/>
<path d="M55.5826 31.3551C55.4222 31.0701 55.0601 30.9633 54.7751 31.1236C54.4901 31.2839 54.3832 31.6461 54.5435 31.9311C55.9032 34.3773 56.6216 37.1679 56.6216 39.9942C56.6216 42.8204 55.9032 45.6111 54.5435 48.0573C54.3832 48.3423 54.4901 48.7045 54.7751 48.8648C54.8641 48.9183 54.9651 48.942 55.066 48.942C55.2738 48.942 55.4757 48.8292 55.5885 48.6392C57.0491 46.0148 57.821 43.0283 57.821 39.9942C57.821 36.9601 57.0491 33.9736 55.5885 31.3492L55.5826 31.3551Z" fill="#CBCBCB"/>
<path d="M51.875 31.0938C53.5138 31.0938 54.8438 29.7638 54.8438 28.125C54.8438 26.4863 53.5138 25.1562 51.875 25.1562C50.2363 25.1562 48.9062 26.4863 48.9062 28.125C48.9062 29.7638 50.2363 31.0938 51.875 31.0938ZM51.875 26.3438C52.8547 26.3438 53.6562 27.1453 53.6562 28.125C53.6562 29.1047 52.8547 29.9062 51.875 29.9062C50.8953 29.9062 50.0938 29.1047 50.0938 28.125C50.0938 27.1453 50.8953 26.3438 51.875 26.3438Z" fill="#CBCBCB"/>
<path d="M28.125 31.0938C29.7638 31.0938 31.0938 29.7638 31.0938 28.125C31.0938 26.4863 29.7638 25.1562 28.125 25.1562C26.4863 25.1562 25.1562 26.4863 25.1562 28.125C25.1562 29.7638 26.4863 31.0938 28.125 31.0938ZM28.125 26.3438C29.1047 26.3438 29.9062 27.1453 29.9062 28.125C29.9062 29.1047 29.1047 29.9062 28.125 29.9062C27.1453 29.9062 26.3438 29.1047 26.3438 28.125C26.3438 27.1453 27.1453 26.3438 28.125 26.3438Z" fill="#CBCBCB"/>
<path d="M51.875 48.9062C50.2363 48.9062 48.9062 50.2363 48.9062 51.875C48.9062 53.5138 50.2363 54.8438 51.875 54.8438C53.5138 54.8438 54.8438 53.5138 54.8438 51.875C54.8438 50.2363 53.5138 48.9062 51.875 48.9062ZM51.875 53.6562C50.8953 53.6562 50.0938 52.8547 50.0938 51.875C50.0938 50.8953 50.8953 50.0938 51.875 50.0938C52.8547 50.0938 53.6562 50.8953 53.6562 51.875C53.6562 52.8547 52.8547 53.6562 51.875 53.6562Z" fill="#CBCBCB"/>
<path d="M28.125 48.9062C26.4863 48.9062 25.1562 50.2363 25.1562 51.875C25.1562 53.5138 26.4863 54.8438 28.125 54.8438C29.7638 54.8438 31.0938 53.5138 31.0938 51.875C31.0938 50.2363 29.7638 48.9062 28.125 48.9062ZM28.125 53.6562C27.1453 53.6562 26.3438 52.8547 26.3438 51.875C26.3438 50.8953 27.1453 50.0938 28.125 50.0938C29.1047 50.0938 29.9062 50.8953 29.9062 51.875C29.9062 52.8547 29.1047 53.6562 28.125 53.6562Z" fill="#CBCBCB"/>
<defs>
<filter id="filter0_f_1654_186677" x="-7.35192" y="37.3024" width="90.0456" height="90.0466" filterUnits="userSpaceOnUse" color-interpolation-filters="sRGB">
<feFlood flood-opacity="0" result="BackgroundImageFix"/>
<feBlend mode="normal" in="SourceGraphic" in2="BackgroundImageFix" result="shape"/>
<feGaussianBlur stdDeviation="12.9767" result="effect1_foregroundBlur_1654_186677"/>
</filter>
<linearGradient id="paint0_linear_1654_186677" x1="59.0665" y1="5.58154" x2="5.57813" y2="64.6513" gradientUnits="userSpaceOnUse">
<stop stop-color="#D9D9D9"/>
<stop offset="1" stop-color="#737373"/>
</linearGradient>
<linearGradient id="paint1_linear_1654_186677" x1="39.9967" y1="5.58154" x2="39.9967" y2="74.4188" gradientUnits="userSpaceOnUse">
<stop stop-color="white" stop-opacity="0"/>
<stop offset="1" stop-color="#636363"/>
</linearGradient>
<linearGradient id="paint2_linear_1654_186677" x1="59.0665" y1="4.65088" x2="5.57813" y2="63.7207" gradientUnits="userSpaceOnUse">
<stop stop-color="#D9D9D9"/>
<stop offset="1" stop-color="#737373"/>
</linearGradient>
<linearGradient id="paint3_linear_1654_186677" x1="53.4851" y1="19.5346" x2="-40.9335" y2="125.116" gradientUnits="userSpaceOnUse">
<stop stop-color="white" stop-opacity="0"/>
<stop offset="1" stop-color="#636363"/>
</linearGradient>
</defs>
</svg>
