<svg width="25" height="25" viewBox="0 0 25 25" fill="none" xmlns="http://www.w3.org/2000/svg">
<g filter="url(#filter0_d_1739_130911)">
<path d="M11.782 16.3279C11.782 16.6554 12.0475 16.9209 12.375 16.9209C12.7025 16.9209 12.968 16.6554 12.968 16.3279V13.9558C12.968 13.6283 12.7025 13.3628 12.375 13.3628C12.0475 13.3628 11.782 13.6283 11.782 13.9558V16.3279Z" fill="white"/>
<path fill-rule="evenodd" clip-rule="evenodd" d="M12.375 3.08372C11.8151 3.08372 11.3064 3.24409 10.7545 3.51247C10.221 3.77191 9.60473 4.1544 8.83493 4.63217L7.2009 5.6463C6.47251 6.09835 5.88926 6.46032 5.43971 6.8046C4.97419 7.16111 4.61663 7.5242 4.35836 7.99604C4.10063 8.46689 3.98456 8.96789 3.92892 9.5601C3.87499 10.134 3.87499 10.8358 3.875 11.716V12.9911C3.87499 14.4965 3.87498 15.6847 3.99574 16.6138C4.11962 17.5669 4.37991 18.3363 4.96803 18.9447C5.55886 19.5558 6.31071 19.8289 7.24148 19.9583C8.14357 20.0837 9.29568 20.0837 10.7476 20.0837H14.0023C15.4543 20.0837 16.6064 20.0837 17.5085 19.9583C18.4393 19.8289 19.1911 19.5558 19.782 18.9447C20.3701 18.3363 20.6304 17.5669 20.7543 16.6138C20.875 15.6847 20.875 14.4965 20.875 12.9911V11.7159C20.875 10.8358 20.875 10.134 20.8211 9.5601C20.7654 8.96789 20.6494 8.46689 20.3916 7.99604C20.1334 7.5242 19.7758 7.16111 19.3103 6.8046C18.8607 6.46032 18.2775 6.09835 17.5491 5.64631L15.9151 4.63216C15.1453 4.1544 14.529 3.7719 13.9955 3.51247C13.4436 3.24409 12.9349 3.08372 12.375 3.08372ZM9.43323 5.65675C10.2364 5.15828 10.8011 4.80866 11.2732 4.57909C11.7331 4.35542 12.0589 4.26977 12.375 4.26977C12.6911 4.26977 13.0169 4.35542 13.4768 4.57909C13.9489 4.80866 14.5136 5.15828 15.3168 5.65675L16.8982 6.63821C17.6579 7.10972 18.1913 7.44154 18.5892 7.74623C18.9763 8.0427 19.199 8.28735 19.3513 8.56552C19.5041 8.84466 19.5933 9.17103 19.6402 9.67106C19.6884 10.1831 19.689 10.8293 19.689 11.745V12.9476C19.689 14.5061 19.6878 15.6172 19.5781 16.461C19.4704 17.2897 19.2675 17.7704 18.9293 18.1203C18.5937 18.4674 18.1369 18.6734 17.3452 18.7836C16.5342 18.8963 15.4647 18.8977 13.9564 18.8977H10.7936C9.28533 18.8977 8.2158 18.8963 7.40485 18.7836C6.61307 18.6734 6.15627 18.4674 5.82074 18.1203C5.4825 17.7704 5.27961 17.2897 5.1719 16.461C5.06223 15.6172 5.06105 14.5061 5.06105 12.9476V11.745C5.06105 10.8293 5.06165 10.1831 5.10976 9.67106C5.15675 9.17103 5.24595 8.84466 5.39875 8.56552C5.55101 8.28735 5.77372 8.0427 6.16084 7.74623C6.55871 7.44154 7.09211 7.10972 7.85184 6.63821L9.43323 5.65675Z" fill="white"/>
</g>
<defs>
<filter id="filter0_d_1739_130911" x="0.000581264" y="3.93391e-06" width="24.7488" height="24.7488" filterUnits="userSpaceOnUse" color-interpolation-filters="sRGB">
<feFlood flood-opacity="0" result="BackgroundImageFix"/>
<feColorMatrix in="SourceAlpha" type="matrix" values="0 0 0 0 0 0 0 0 0 0 0 0 0 0 0 0 0 0 127 0" result="hardAlpha"/>
<feOffset dy="0.790698"/>
<feGaussianBlur stdDeviation="1.93721"/>
<feComposite in2="hardAlpha" operator="out"/>
<feColorMatrix type="matrix" values="0 0 0 0 1 0 0 0 0 1 0 0 0 0 1 0 0 0 1 0"/>
<feBlend mode="normal" in2="BackgroundImageFix" result="effect1_dropShadow_1739_130911"/>
<feBlend mode="normal" in="SourceGraphic" in2="effect1_dropShadow_1739_130911" result="shape"/>
</filter>
</defs>
</svg>
