<svg width="80" height="80" viewBox="0 0 80 80" fill="none" xmlns="http://www.w3.org/2000/svg">
<circle cx="40.0006" cy="40.0001" r="34.0698" fill="url(#paint0_linear_1627_252301)" fill-opacity="0.1" stroke="url(#paint1_linear_1627_252301)" stroke-width="0.697674"/>
<circle cx="40" cy="40" r="40" fill="#D9D9D9" fill-opacity="0.1"/>
<mask id="mask0_1627_252301" style="mask-type:alpha" maskUnits="userSpaceOnUse" x="5" y="4" width="70" height="70">
<circle cx="40.0006" cy="39.0705" r="34.0698" fill="url(#paint2_linear_1627_252301)" stroke="url(#paint3_linear_1627_252301)" stroke-width="0.697674"/>
</mask>
<g mask="url(#mask0_1627_252301)">
<g filter="url(#filter0_f_1627_252301)">
<circle cx="37.6752" cy="75.8139" r="19.0698" fill="#D9D9D9"/>
</g>
</g>
<path d="M37.3353 33.6673C36.221 32.8301 34.8357 32.334 33.3346 32.334C29.6527 32.334 26.668 35.3188 26.668 39.0007C26.668 42.6825 29.6527 45.6673 33.3346 45.6673C37.0165 45.6673 38.0013 43.0007 40.0013 39.0007C42.0013 35.0007 42.9861 32.334 46.668 32.334C50.3499 32.334 53.3346 35.3188 53.3346 39.0007C53.3346 42.6825 50.3499 45.6673 46.668 45.6673C45.1671 45.6673 43.7822 45.171 42.668 44.334" stroke="white" stroke-width="1.5" stroke-linecap="round"/>
<defs>
<filter id="filter0_f_1627_252301" x="-7.34802" y="30.7907" width="90.0476" height="90.0466" filterUnits="userSpaceOnUse" color-interpolation-filters="sRGB">
<feFlood flood-opacity="0" result="BackgroundImageFix"/>
<feBlend mode="normal" in="SourceGraphic" in2="BackgroundImageFix" result="shape"/>
<feGaussianBlur stdDeviation="12.9767" result="effect1_foregroundBlur_1627_252301"/>
</filter>
<linearGradient id="paint0_linear_1627_252301" x1="59.0704" y1="5.58154" x2="5.58204" y2="64.6513" gradientUnits="userSpaceOnUse">
<stop stop-color="#D9D9D9"/>
<stop offset="1" stop-color="#737373"/>
</linearGradient>
<linearGradient id="paint1_linear_1627_252301" x1="53.489" y1="20.4653" x2="-40.9296" y2="126.047" gradientUnits="userSpaceOnUse">
<stop stop-color="white" stop-opacity="0"/>
<stop offset="1" stop-color="#636363"/>
</linearGradient>
<linearGradient id="paint2_linear_1627_252301" x1="59.0704" y1="4.65185" x2="5.58204" y2="63.7216" gradientUnits="userSpaceOnUse">
<stop stop-color="#D9D9D9"/>
<stop offset="1" stop-color="#737373"/>
</linearGradient>
<linearGradient id="paint3_linear_1627_252301" x1="53.489" y1="19.5356" x2="-40.9296" y2="125.117" gradientUnits="userSpaceOnUse">
<stop stop-color="white" stop-opacity="0"/>
<stop offset="1" stop-color="#636363"/>
</linearGradient>
</defs>
</svg>
