<svg width="21" height="22" viewBox="0 0 21 22" fill="none" xmlns="http://www.w3.org/2000/svg">
<path fill-rule="evenodd" clip-rule="evenodd" d="M20.2558 21.0487C20.6167 21.0487 20.9093 20.7561 20.9093 20.3952V14.2568L20.9093 14.2115C20.9095 11.5337 20.9098 6.73134 15.7404 6.73134C13.3927 6.73134 12.2901 7.59075 11.5482 8.70418V7.59767C11.5482 7.23678 11.2555 6.94416 10.8946 6.94416H7.75458C7.39369 6.94416 7.10107 7.23678 7.10107 7.59767V20.3952C7.10107 20.7561 7.39369 21.0487 7.75458 21.0487H10.8946C11.2556 21.0487 11.5482 20.7561 11.5482 20.3952V13.5336C11.6297 12.6116 12.0355 10.5572 14.0364 10.5572C16.4259 10.5572 16.3786 13.1327 16.3586 14.2176C16.358 14.2527 16.3574 14.2862 16.3569 14.3181C16.3561 14.3645 16.3556 14.4073 16.3556 14.4461V20.3952C16.3556 20.7561 16.6483 21.0487 17.0092 21.0487H20.2558Z" fill="white"/>
<path fill-rule="evenodd" clip-rule="evenodd" d="M4.38708 21.0487C4.77964 21.0487 5.09784 20.7305 5.09784 20.3379V7.65492C5.09784 7.26236 4.77964 6.94416 4.38708 6.94416H1.36152C0.968961 6.94416 0.650757 7.26236 0.650757 7.65492V20.3379C0.650757 20.7305 0.968961 21.0487 1.36152 21.0487H4.38708Z" fill="white"/>
<path fill-rule="evenodd" clip-rule="evenodd" d="M0 2.8743C0 4.46172 1.28688 5.7486 2.8743 5.7486C4.46179 5.7486 5.7486 4.46172 5.7486 2.8743C5.7486 1.28688 4.46171 0 2.8743 0C1.28688 0 0 1.28688 0 2.8743Z" fill="white"/>
</svg>
