<svg width="20" height="20" viewBox="0 0 20 20" fill="none" xmlns="http://www.w3.org/2000/svg">
<g style="mix-blend-mode:exclusion">
<path fill-rule="evenodd" clip-rule="evenodd" d="M9.49407 2.2705C5.50417 2.2705 2.26971 5.50495 2.26971 9.49486C2.26971 13.4848 5.50417 16.7192 9.49407 16.7192C13.484 16.7192 16.7184 13.4848 16.7184 9.49486C16.7184 5.50495 13.484 2.2705 9.49407 2.2705ZM1.03125 9.49486C1.03125 4.82097 4.82018 1.03204 9.49407 1.03204C14.168 1.03204 17.9569 4.82097 17.9569 9.49486C17.9569 11.6089 17.1817 13.5419 15.9001 15.0252L18.6012 17.7262C18.843 17.9681 18.843 18.3601 18.6012 18.602C18.3593 18.8438 17.9673 18.8438 17.7254 18.602L15.0244 15.9009C13.5412 17.1825 11.6081 17.9577 9.49407 17.9577C4.82018 17.9577 1.03125 14.1687 1.03125 9.49486Z" fill="white"/>
</g>
</svg>
