<svg width="80" height="80" viewBox="0 0 80 80" fill="none" xmlns="http://www.w3.org/2000/svg">
<circle cx="40" cy="40" r="40" fill="#D9D9D9" fill-opacity="0.1"/>
<circle cx="39.9967" cy="40.0001" r="34.0698" fill="url(#paint0_linear_1654_186721)" fill-opacity="0.1" stroke="url(#paint1_linear_1654_186721)" stroke-width="0.697674"/>
<mask id="mask0_1654_186721" style="mask-type:alpha" maskUnits="userSpaceOnUse" x="5" y="4" width="70" height="70">
<circle cx="39.9967" cy="39.0695" r="34.0698" fill="url(#paint2_linear_1654_186721)" stroke="url(#paint3_linear_1654_186721)" stroke-width="0.697674"/>
</mask>
<g mask="url(#mask0_1654_186721)">
<g filter="url(#filter0_f_1654_186721)">
<circle cx="37.6713" cy="75.8139" r="19.0698" fill="#D9D9D9"/>
</g>
</g>
<g clip-path="url(#clip0_1654_186721)">
<path d="M52.8581 28.7285H28.1419C26.4095 28.7285 25 30.138 25 31.8704V49.13C25 50.8622 26.4095 52.2713 28.1419 52.2713H52.8582C54.5907 52.2713 56.0001 50.8621 56.0001 49.13V31.8704C56 30.138 54.5906 28.7285 52.8581 28.7285ZM54.7739 49.1301C54.7739 50.1861 53.9145 51.0452 52.8582 51.0452H28.1419C27.0855 51.0452 26.2261 50.1861 26.2261 49.1301V31.8704C26.2261 30.814 27.0855 29.9546 28.1419 29.9546H52.8582C53.9145 29.9546 54.7739 30.814 54.7739 31.8704V49.1301Z" fill="#CBCBCB"/>
<path d="M32.5337 38.4916V35.0247C32.5337 34.6861 32.2592 34.4116 31.9206 34.4116C31.582 34.4116 31.3076 34.6861 31.3076 35.0247V38.4916C30.4476 38.7546 29.8203 39.5555 29.8203 40.5004C29.8203 41.4453 30.4476 42.2462 31.3076 42.5092V45.9755C31.3076 46.314 31.582 46.5885 31.9206 46.5885C32.2592 46.5885 32.5337 46.314 32.5337 45.9755V42.5092C33.394 42.2462 34.0215 41.4453 34.0215 40.5003C34.0215 39.5554 33.394 38.7545 32.5337 38.4916ZM31.9206 41.3746C31.4386 41.3746 31.0464 40.9825 31.0464 40.5004C31.0464 40.0183 31.4385 39.6262 31.9206 39.6262C32.403 39.6262 32.7955 40.0183 32.7955 40.5004C32.7955 40.9825 32.403 41.3746 31.9206 41.3746Z" fill="#CBCBCB"/>
<path d="M41.1124 35.7354V35.0247C41.1124 34.6861 40.8379 34.4116 40.4994 34.4116C40.1608 34.4116 39.8863 34.6861 39.8863 35.0247V35.7354C39.026 35.9984 38.3984 36.7995 38.3984 37.7447C38.3984 38.6897 39.026 39.4907 39.8863 39.7536V45.9755C39.8863 46.314 40.1608 46.5885 40.4994 46.5885C40.8379 46.5885 41.1124 46.314 41.1124 45.9755V39.7535C41.9723 39.4905 42.5997 38.6896 42.5997 37.7447C42.5997 36.7995 41.9723 35.9984 41.1124 35.7354ZM40.4994 38.6188C40.0169 38.6188 39.6245 38.2267 39.6245 37.7447C39.6245 37.2624 40.0169 36.8698 40.4994 36.8698C40.9814 36.8698 41.3736 37.2622 41.3736 37.7447C41.3736 38.2267 40.9814 38.6188 40.4994 38.6188Z" fill="#CBCBCB"/>
<path d="M49.6977 41.2473V35.0247C49.6977 34.6861 49.4232 34.4116 49.0847 34.4116C48.7462 34.4116 48.4716 34.6861 48.4716 35.0247V41.2473C47.6117 41.5103 46.9844 42.3112 46.9844 43.2561C46.9844 44.2012 47.6117 45.0024 48.4716 45.2654V45.9755C48.4716 46.314 48.7462 46.5885 49.0847 46.5885C49.4232 46.5885 49.6977 46.314 49.6977 45.9755V45.2654C50.5577 45.0023 51.185 44.2012 51.185 43.2561C51.1849 42.3112 50.5577 41.5103 49.6977 41.2473ZM49.0847 44.1309C48.6027 44.1309 48.2105 43.7385 48.2105 43.2561C48.2105 42.7741 48.6026 42.3818 49.0847 42.3818C49.5668 42.3818 49.9589 42.7739 49.9589 43.2561C49.9588 43.7384 49.5667 44.1309 49.0847 44.1309Z" fill="#CBCBCB"/>
<path d="M48.6739 31.334H44.199C43.8605 31.334 43.5859 31.6085 43.5859 31.947C43.5859 32.2855 43.8605 32.5601 44.199 32.5601H48.6739C49.0125 32.5601 49.287 32.2856 49.287 31.947C49.287 31.6085 49.0125 31.334 48.6739 31.334Z" fill="#CBCBCB"/>
<path d="M50.9984 31.334C50.2095 31.334 50.2082 32.5601 50.9984 32.5601C51.7874 32.5601 51.7887 31.334 50.9984 31.334Z" fill="#CBCBCB"/>
</g>
<defs>
<filter id="filter0_f_1654_186721" x="-7.35192" y="30.7907" width="90.0456" height="90.0466" filterUnits="userSpaceOnUse" color-interpolation-filters="sRGB">
<feFlood flood-opacity="0" result="BackgroundImageFix"/>
<feBlend mode="normal" in="SourceGraphic" in2="BackgroundImageFix" result="shape"/>
<feGaussianBlur stdDeviation="12.9767" result="effect1_foregroundBlur_1654_186721"/>
</filter>
<linearGradient id="paint0_linear_1654_186721" x1="59.0665" y1="5.58154" x2="5.57813" y2="64.6513" gradientUnits="userSpaceOnUse">
<stop stop-color="#D9D9D9"/>
<stop offset="1" stop-color="#737373"/>
</linearGradient>
<linearGradient id="paint1_linear_1654_186721" x1="39.9967" y1="5.58154" x2="39.9967" y2="74.4188" gradientUnits="userSpaceOnUse">
<stop stop-color="white" stop-opacity="0"/>
<stop offset="1" stop-color="#636363"/>
</linearGradient>
<linearGradient id="paint2_linear_1654_186721" x1="59.0665" y1="4.65088" x2="5.57813" y2="63.7207" gradientUnits="userSpaceOnUse">
<stop stop-color="#D9D9D9"/>
<stop offset="1" stop-color="#737373"/>
</linearGradient>
<linearGradient id="paint3_linear_1654_186721" x1="53.4851" y1="19.5346" x2="-40.9335" y2="125.116" gradientUnits="userSpaceOnUse">
<stop stop-color="white" stop-opacity="0"/>
<stop offset="1" stop-color="#636363"/>
</linearGradient>
<clipPath id="clip0_1654_186721">
<rect width="31" height="31" fill="white" transform="translate(25 25)"/>
</clipPath>
</defs>
</svg>
