<svg width="24" height="24" viewBox="0 0 24 24" fill="none" xmlns="http://www.w3.org/2000/svg">
<path d="M10.0004 13.25C9.58622 13.25 9.25044 13.5858 9.25044 14C9.25044 14.4143 9.58622 14.75 10.0004 14.75H14.0004C14.4146 14.75 14.7504 14.4143 14.7504 14C14.7504 13.5858 14.4146 13.25 14.0004 13.25H10.0004Z" fill="white"/>
<path fill-rule="evenodd" clip-rule="evenodd" d="M14.665 2.32922C15.0355 2.14398 15.486 2.29415 15.6713 2.66463L17.4846 6.29123C17.9121 6.31297 18.302 6.34617 18.6553 6.3969C19.711 6.54848 20.5848 6.87435 21.2058 7.6425C21.8267 8.41065 21.9623 9.33332 21.8893 10.3974C21.8186 11.4285 21.5399 12.7289 21.1915 14.3546L20.7401 16.4613C20.5052 17.5577 20.3146 18.4471 20.0748 19.1419C19.8248 19.866 19.4954 20.4614 18.9328 20.9163C18.3701 21.3711 17.7189 21.5685 16.9585 21.6612C16.2289 21.7501 15.3193 21.7501 14.1979 21.75H9.80301C8.68168 21.7501 7.77208 21.7501 7.04245 21.6612C6.28207 21.5685 5.63082 21.3711 5.06818 20.9163C4.50554 20.4614 4.1761 19.866 3.92617 19.1419C3.68635 18.4471 3.49578 17.5577 3.26084 16.4612L2.80942 14.3546C2.46104 12.7289 2.18237 11.4285 2.11164 10.3974C2.03865 9.33332 2.1742 8.41065 2.79518 7.6425C3.41617 6.87435 4.28995 6.54848 5.34567 6.3969C5.69895 6.34618 6.08881 6.31297 6.51631 6.29123L8.32962 2.66463C8.51486 2.29415 8.96536 2.14398 9.33585 2.32922C9.70633 2.51446 9.8565 2.96497 9.67126 3.33545L8.21293 6.2521C8.57649 6.25003 8.95914 6.25004 9.36125 6.25004H14.6397C15.0417 6.25004 15.4244 6.25003 15.7879 6.2521L14.3296 3.33545C14.1444 2.96497 14.2945 2.51446 14.665 2.32922ZM5.73255 7.85876L5.32962 8.66463C5.14437 9.03512 5.29454 9.48562 5.66503 9.67086C6.03551 9.8561 6.48601 9.70594 6.67126 9.33545L7.45851 7.76095C8.02891 7.75038 8.67835 7.75004 9.42239 7.75004H14.5785C15.3226 7.75004 15.972 7.75038 16.5424 7.76095L17.3296 9.33545C17.5149 9.70594 17.9654 9.8561 18.3358 9.67086C18.7063 9.48562 18.8565 9.03512 18.6713 8.66463L18.2683 7.85875C18.3275 7.86591 18.3854 7.87354 18.4421 7.88167C19.326 8.00858 19.7597 8.2397 20.0393 8.58552C20.3141 8.92551 20.4493 9.38797 20.3957 10.25H3.6052C3.55161 9.38797 3.68683 8.92551 3.96168 8.58552C4.24125 8.2397 4.67497 8.00858 5.55886 7.88167C5.61549 7.87354 5.67338 7.86591 5.73255 7.85876ZM4.28893 14.1001C4.09194 13.1808 3.92712 12.4091 3.80743 11.75H20.1935C20.0738 12.4091 19.909 13.1808 19.712 14.1001L19.2834 16.1001C19.036 17.2546 18.8634 18.0542 18.6569 18.6525C18.457 19.2314 18.2522 19.5376 17.9897 19.7498C17.7273 19.9619 17.385 20.0981 16.777 20.1722C16.1487 20.2487 15.3307 20.25 14.15 20.25H9.85096C8.67021 20.25 7.85223 20.2487 7.2239 20.1722C6.61594 20.0981 6.27362 19.9619 6.01119 19.7498C5.74876 19.5376 5.54392 19.2314 5.34409 18.6525C5.13756 18.0542 4.96491 17.2546 4.7175 16.1001L4.28893 14.1001Z" fill="white"/>
</svg>
