<svg width="80" height="80" viewBox="0 0 80 80" fill="none" xmlns="http://www.w3.org/2000/svg">
<circle cx="40.0006" cy="40.0001" r="34.0698" fill="url(#paint0_linear_1627_252313)" fill-opacity="0.1" stroke="url(#paint1_linear_1627_252313)" stroke-width="0.697674"/>
<circle cx="40" cy="40" r="40" fill="#D9D9D9" fill-opacity="0.1"/>
<mask id="mask0_1627_252313" style="mask-type:alpha" maskUnits="userSpaceOnUse" x="5" y="4" width="70" height="70">
<circle cx="40.0006" cy="39.0705" r="34.0698" fill="url(#paint2_linear_1627_252313)" stroke="url(#paint3_linear_1627_252313)" stroke-width="0.697674"/>
</mask>
<g mask="url(#mask0_1627_252313)">
<g filter="url(#filter0_f_1627_252313)">
<circle cx="37.6752" cy="75.8139" r="19.0698" fill="#D9D9D9"/>
</g>
</g>
<path d="M28.3359 38.8333C28.3359 34.4336 28.3359 32.2337 29.7028 30.8668C31.0696 29.5 33.2695 29.5 37.6693 29.5H42.3359C46.7357 29.5 48.9356 29.5 50.3024 30.8668C51.6693 32.2337 51.6693 34.4336 51.6693 38.8333V41.1667C51.6693 45.5664 51.6693 47.7663 50.3024 49.1332C48.9356 50.5 46.7357 50.5 42.3359 50.5H37.6693C33.2695 50.5 31.0696 50.5 29.7028 49.1332C28.3359 47.7663 28.3359 45.5664 28.3359 41.1667V38.8333Z" stroke="white" stroke-width="1.07692"/>
<path d="M43.5 50.5L43.5 29.5" stroke="white" stroke-width="1.07692" stroke-linecap="round"/>
<path d="M33.0026 42.3335L31.8359 43.5002L33.0026 44.6668M38.2526 44.6668L39.4193 45.8335L38.2526 47.0002M36.5026 42.3335L34.7526 47.0002" stroke="white" stroke-width="1.07692" stroke-linecap="round" stroke-linejoin="round"/>
<defs>
<filter id="filter0_f_1627_252313" x="-7.34802" y="30.7907" width="90.0476" height="90.0466" filterUnits="userSpaceOnUse" color-interpolation-filters="sRGB">
<feFlood flood-opacity="0" result="BackgroundImageFix"/>
<feBlend mode="normal" in="SourceGraphic" in2="BackgroundImageFix" result="shape"/>
<feGaussianBlur stdDeviation="12.9767" result="effect1_foregroundBlur_1627_252313"/>
</filter>
<linearGradient id="paint0_linear_1627_252313" x1="59.0704" y1="5.58154" x2="5.58204" y2="64.6513" gradientUnits="userSpaceOnUse">
<stop stop-color="#D9D9D9"/>
<stop offset="1" stop-color="#737373"/>
</linearGradient>
<linearGradient id="paint1_linear_1627_252313" x1="53.489" y1="20.4653" x2="-40.9296" y2="126.047" gradientUnits="userSpaceOnUse">
<stop stop-color="white" stop-opacity="0"/>
<stop offset="1" stop-color="#636363"/>
</linearGradient>
<linearGradient id="paint2_linear_1627_252313" x1="59.0704" y1="4.65185" x2="5.58204" y2="63.7216" gradientUnits="userSpaceOnUse">
<stop stop-color="#D9D9D9"/>
<stop offset="1" stop-color="#737373"/>
</linearGradient>
<linearGradient id="paint3_linear_1627_252313" x1="53.489" y1="19.5356" x2="-40.9296" y2="125.117" gradientUnits="userSpaceOnUse">
<stop stop-color="white" stop-opacity="0"/>
<stop offset="1" stop-color="#636363"/>
</linearGradient>
</defs>
</svg>
