<svg width="17" height="20" viewBox="0 0 17 20" fill="none" xmlns="http://www.w3.org/2000/svg">
<g style="mix-blend-mode:exclusion">
<path fill-rule="evenodd" clip-rule="evenodd" d="M8.02096 0C5.61622 0 3.66679 1.94943 3.66679 4.35417C3.66679 6.75891 5.61622 8.70833 8.02096 8.70833C10.4257 8.70833 12.3751 6.75891 12.3751 4.35417C12.3751 1.94943 10.4257 0 8.02096 0ZM5.04179 4.35417C5.04179 2.70882 6.37561 1.375 8.02096 1.375C9.6663 1.375 11.0001 2.70882 11.0001 4.35417C11.0001 5.99952 9.6663 7.33333 8.02096 7.33333C6.37561 7.33333 5.04179 5.99952 5.04179 4.35417Z" fill="white"/>
<path fill-rule="evenodd" clip-rule="evenodd" d="M8.02096 10.0833C5.9002 10.0833 3.9463 10.5654 2.49845 11.3798C1.07215 12.1821 0.000123031 13.3981 0.000123031 14.8958L6.22198e-05 14.9893C-0.000973381 16.0543 -0.00227314 17.391 1.17017 18.3457C1.74718 18.8156 2.55439 19.1498 3.64498 19.3705C4.73861 19.5919 6.164 19.7083 8.02096 19.7083C9.87792 19.7083 11.3033 19.5919 12.3969 19.3705C13.4875 19.1498 14.2947 18.8156 14.8717 18.3457C16.0442 17.391 16.0429 16.0543 16.0418 14.9893L16.0418 14.8958C16.0418 13.3981 14.9698 12.1821 13.5435 11.3798C12.0956 10.5654 10.1417 10.0833 8.02096 10.0833ZM1.37512 14.8958C1.37512 14.1154 1.94472 13.2689 3.17256 12.5782C4.37885 11.8997 6.09162 11.4583 8.02096 11.4583C9.95029 11.4583 11.6631 11.8997 12.8694 12.5782C14.0972 13.2689 14.6668 14.1154 14.6668 14.8958C14.6668 16.0947 14.6298 16.7695 14.0035 17.2796C13.6638 17.5561 13.0961 17.8261 12.1241 18.0228C11.1553 18.2189 9.83066 18.3333 8.02096 18.3333C6.21125 18.3333 4.88663 18.2189 3.91776 18.0228C2.94585 17.8261 2.37807 17.5561 2.03841 17.2796C1.41208 16.7695 1.37512 16.0947 1.37512 14.8958Z" fill="white"/>
</g>
</svg>
