<svg width="43" height="30" viewBox="0 0 43 30" fill="none" xmlns="http://www.w3.org/2000/svg">
<path d="M39.6269 3.14275C39.1499 2.73128 38.5715 2.49619 38.1475 2.35137C37.674 2.18966 37.1327 2.05667 36.5637 1.94374C35.4224 1.71718 33.9956 1.53792 32.4138 1.39795C29.2399 1.11707 25.2623 0.979149 21.3104 0.979149C17.3585 0.979149 13.3808 1.11707 10.2069 1.39793C8.62521 1.53792 7.19846 1.71718 6.05705 1.94372C5.48804 2.05665 4.94689 2.18966 4.47332 2.35137C4.04925 2.49619 3.4708 2.73128 2.99392 3.14275C2.54188 3.53278 2.28614 4.0139 2.1428 4.33059C1.98307 4.68349 1.86111 5.06598 1.76405 5.43657C1.5694 6.17991 1.42314 7.07857 1.31193 8.03648C1.08803 9.96487 0.980469 12.3651 0.980469 14.7501C0.980469 17.1369 1.08818 19.5716 1.31077 21.5711C1.42164 22.567 1.56577 23.4994 1.75271 24.2823C1.91429 24.9592 2.18363 25.8814 2.72897 26.5535C3.23468 27.1771 3.95363 27.4596 4.30898 27.5877C4.77027 27.754 5.30361 27.8846 5.85415 27.9925C6.96438 28.2102 8.38836 28.3808 9.97957 28.5138C13.1765 28.7808 17.2567 28.9121 21.3104 28.9121C25.3639 28.9121 29.4443 28.7808 32.6411 28.5138C34.2324 28.3808 35.6563 28.2102 36.7666 27.9925C37.3171 27.8846 37.8506 27.754 38.3117 27.5877C38.6671 27.4596 39.386 27.1771 39.8918 26.5535C40.4372 25.8814 40.7064 24.9592 40.868 24.2823C41.0549 23.4994 41.1991 22.567 41.31 21.5711C41.5326 19.5716 41.6402 17.1369 41.6402 14.7501C41.6402 12.3651 41.5328 9.96487 41.3089 8.03648C41.1976 7.0786 41.0513 6.17991 40.8568 5.43657C40.7597 5.06598 40.6377 4.68351 40.478 4.33059C40.3347 4.01387 40.079 3.53278 39.6269 3.14275Z" fill="white" stroke="white" stroke-width="1.9583" stroke-linecap="round" stroke-linejoin="round"/>
<path d="M25.6172 14.3011C26.1558 14.6476 26.1558 15.435 25.6172 15.7815L18.579 20.3092C17.9933 20.6861 17.2227 20.2655 17.2227 19.569V10.5132C17.2227 9.81677 17.9933 9.39623 18.579 9.77305L25.6172 14.3011Z" fill="black"/>
</svg>
