<svg width="211" height="26" viewBox="0 0 211 26" fill="none" xmlns="http://www.w3.org/2000/svg">
<g clip-path="url(#clip0_1723_125818)">
<path d="M19.0717 2.58968C18.9452 2.41621 18.6719 2.50707 18.6719 2.72598V7.03797C18.6719 7.94663 19.0472 8.81811 19.6795 9.4583L35.5365 25.5126H35.9567L19.0717 2.58968Z" fill="#0055FF"/>
<path d="M16.8851 2.58968L0 25.5126H0.420189L16.2772 9.4583C16.9095 8.81811 17.2849 7.94663 17.2849 7.03797V2.72598C17.2849 2.50707 17.0115 2.41621 16.8851 2.58968Z" fill="#0055FF"/>
<path d="M33.5979 25.5127H33.1859L28.1029 21.4361C22.1753 16.6863 13.8001 16.6863 7.88077 21.4444L2.81811 25.5127H2.41016L15.5992 12.1513C16.925 10.8089 19.0749 10.8089 20.3967 12.1513L33.5939 25.5127H33.5979Z" fill="#0055FF"/>
<path d="M17.9705 1.75949C18.4504 1.75949 18.8394 1.36562 18.8394 0.879746C18.8394 0.393876 18.4504 0 17.9705 0C17.4906 0 17.1016 0.393876 17.1016 0.879746C17.1016 1.36562 17.4906 1.75949 17.9705 1.75949Z" fill="#0055FF"/>
<path d="M94.3263 13.2667C94.3263 11.5196 93.7755 10.1608 92.6782 9.18601C91.5808 8.2154 89.9612 7.72803 87.8317 7.72803H74.2266V25.4345H75.4708V8.88863H87.8276C89.5369 8.88863 90.8301 9.26449 91.7113 10.0121C92.5925 10.7638 93.029 11.8376 93.029 13.2378C93.029 14.638 92.5558 15.6333 91.6134 16.414C90.667 17.1987 89.2758 17.587 87.436 17.587H85.6043V18.7476L92.5884 25.4262H94.3467L87.2157 18.7476C91.952 18.5824 94.3222 16.7526 94.3222 13.2584L94.3263 13.2667Z" fill="white"/>
<path d="M116.089 9.70631C113.939 8.00877 111.279 7.15794 108.101 7.15794C104.923 7.15794 102.263 8.00877 100.113 9.70631C97.9635 11.4038 96.8906 13.6961 96.8906 16.5791C96.8906 19.462 97.9595 21.7749 100.101 23.4642C102.243 25.1535 104.907 26.0002 108.101 26.0002C111.295 26.0002 113.959 25.1576 116.101 23.4642C118.243 21.7749 119.312 19.4785 119.312 16.5791C119.312 13.6796 118.239 11.4038 116.089 9.70631ZM115.212 22.6505C113.339 24.1416 110.969 24.8892 108.105 24.8892C105.241 24.8892 102.871 24.1416 100.999 22.6505C99.1262 21.1595 98.192 19.1357 98.192 16.5791C98.192 14.0224 99.1262 12.0027 100.999 10.52C102.871 9.03721 105.241 8.29376 108.105 8.29376C110.969 8.29376 113.339 9.03721 115.212 10.52C117.084 12.0027 118.018 14.0224 118.018 16.5791C118.018 19.1357 117.08 21.1595 115.212 22.6505Z" fill="white"/>
<path d="M140.24 16.2075C141.052 15.9927 141.701 15.5012 142.182 14.7371C142.664 13.9689 142.904 13.1841 142.904 12.3746C142.904 10.9744 142.415 9.84685 141.44 9.00015C140.465 8.14931 139.11 7.72803 137.385 7.72803H123.266V25.4345H137.385C139.502 25.4345 141.105 24.9554 142.195 24.0013C143.284 23.0472 143.83 21.8081 143.83 20.2923C143.83 19.3547 143.488 18.4874 142.806 17.6943C142.125 16.9013 141.268 16.4098 140.24 16.2116V16.2075ZM124.514 8.86385H137.238C138.637 8.86385 139.73 9.19014 140.51 9.83859C141.293 10.4912 141.68 11.3916 141.68 12.548C141.68 13.308 141.399 14.0225 140.836 14.6999C140.273 15.3773 139.571 15.7118 138.723 15.7118H124.506V8.86385H124.514ZM141.085 23.1463C140.196 23.898 138.915 24.2697 137.238 24.2697H124.514V16.8022H138.731C139.722 16.8022 140.587 17.1492 141.322 17.8389C142.056 18.5328 142.419 19.3052 142.419 20.1642C142.419 21.3992 141.974 22.3946 141.089 23.1422L141.085 23.1463Z" fill="white"/>
<path d="M166.276 9.70609C164.126 8.00855 161.467 7.15771 158.289 7.15771C155.111 7.15771 152.451 8.00855 150.301 9.70609C148.151 11.4036 147.078 13.6959 147.078 16.5788C147.078 19.4618 148.147 21.7747 150.289 23.464C152.43 25.1533 155.094 26 158.289 26C161.483 26 164.147 25.1574 166.289 23.464C168.43 21.7747 169.499 19.4783 169.499 16.5788C169.499 13.6794 168.426 11.4036 166.276 9.70609ZM165.399 22.6503C163.527 24.1414 161.156 24.8889 158.293 24.8889C155.429 24.8889 153.059 24.1414 151.186 22.6503C149.314 21.1593 148.379 19.1355 148.379 16.5788C148.379 14.0222 149.314 12.0025 151.186 10.5197C153.059 9.03698 155.429 8.29354 158.293 8.29354C161.156 8.29354 163.527 9.03698 165.399 10.5197C167.272 12.0025 168.206 14.0222 168.206 16.5788C168.206 19.1355 167.268 21.1593 165.399 22.6503Z" fill="white"/>
<path d="M171.09 8.91341H179.612V25.4303H180.836V8.91341H189.407V7.72803H171.09V8.91341Z" fill="white"/>
<path d="M209.18 16.8764C207.969 16.1991 206.182 15.8645 203.82 15.8645H199.814C199.308 15.8645 198.888 15.8645 198.557 15.8521C198.223 15.8439 197.799 15.815 197.289 15.7654C196.775 15.7158 196.346 15.6415 196.008 15.5424C195.665 15.4432 195.294 15.3028 194.898 15.1211C194.498 14.9394 194.18 14.7204 193.944 14.4644C193.707 14.2083 193.511 13.882 193.356 13.4855C193.201 13.089 193.124 12.6347 193.124 12.1266C193.124 9.52045 195.918 8.21942 201.503 8.21942C203.914 8.21942 205.717 8.57875 206.912 9.29328C208.108 10.012 208.895 11.1106 209.27 12.5934L210.514 12.519C210.139 10.7058 209.266 9.35937 207.887 8.47549C206.512 7.59575 204.375 7.15381 201.474 7.15381C195.025 7.15381 191.802 8.8183 191.802 12.1473C191.802 12.9899 191.977 13.7209 192.328 14.3487C192.679 14.9765 193.111 15.4598 193.621 15.7943C194.135 16.133 194.768 16.4015 195.526 16.5997C196.285 16.798 196.979 16.926 197.615 16.9838C198.251 17.0417 198.949 17.0706 199.716 17.0706C199.993 17.0706 200.491 17.0623 201.205 17.0458C201.923 17.0293 202.588 17.021 203.208 17.021C203.959 17.021 204.591 17.0375 205.113 17.0706C205.635 17.1036 206.207 17.1821 206.835 17.306C207.463 17.4299 207.965 17.6075 208.348 17.8388C208.732 18.0701 209.054 18.4005 209.315 18.8301C209.576 19.2596 209.707 19.78 209.707 20.3872C209.707 21.8204 209.017 22.9355 207.642 23.7244C206.268 24.5174 204.179 24.9098 201.376 24.9098C198.411 24.9098 196.277 24.5133 194.963 23.7244C193.654 22.9314 192.915 21.7295 192.752 20.1146H191.41C191.524 21.366 191.863 22.3862 192.422 23.1668C192.985 23.9516 193.825 24.5876 194.951 25.0833C196.318 25.678 198.427 25.9754 201.278 25.9754C204.616 25.9754 207.071 25.4757 208.642 24.4803C210.213 23.4849 211 22.0764 211 20.2633C211 18.6814 210.392 17.5497 209.18 16.8764Z" fill="white"/>
<path d="M53.9805 7.72791L43.7695 25.4302H45.1362L54.7352 8.81417L64.5301 25.4302H65.9702L55.5185 7.72791H53.9805Z" fill="white"/>
<path d="M70.1739 7.72791H68.9297V25.4343H70.1739V7.72791Z" fill="white"/>
</g>
<defs>
<clipPath id="clip0_1723_125818">
<rect width="211" height="26" fill="white"/>
</clipPath>
</defs>
</svg>
